<svg id="Layer_1" data-name="Layer 1" xmlns="http://www.w3.org/2000/svg" width="46.29" height="10.53" viewBox="0 0 46.29 10.53">
  <title>bannerArtboard 7</title>
  <g id="Policies">
    <g style="isolation: isolate">
      <g style="isolation: isolate">
        <path d="M7.35,3.24V4.43H7V1.57h.79a1.18,1.18,0,0,1,.77.21.7.7,0,0,1,.25.6.77.77,0,0,1-.57.77L9,4.43H8.64L8,3.24Zm0-.28h.46a.83.83,0,0,0,.52-.14.57.57,0,0,0,.16-.42A.48.48,0,0,0,8.32,2a.92.92,0,0,0-.53-.12H7.35Z" transform="translate(-2.11 -0.13)" style="fill: #5d5d5d"/>
        <path d="M10.35,4.47a1,1,0,0,1-.75-.29,1.12,1.12,0,0,1-.27-.8,1.26,1.26,0,0,1,.25-.83.86.86,0,0,1,.69-.3.81.81,0,0,1,.63.26,1,1,0,0,1,.24.7v.21H9.66A.86.86,0,0,0,9.85,4a.66.66,0,0,0,.51.2A1.72,1.72,0,0,0,11.05,4v.29a1.82,1.82,0,0,1-.33.11A1.9,1.9,0,0,1,10.35,4.47Zm-.09-1.95a.53.53,0,0,0-.41.17.8.8,0,0,0-.18.46h1.12a.73.73,0,0,0-.14-.47A.5.5,0,0,0,10.26,2.52Z" transform="translate(-2.11 -0.13)" style="fill: #5d5d5d"/>
        <path d="M13.07,3.85a.54.54,0,0,1-.22.46,1,1,0,0,1-.63.16,1.35,1.35,0,0,1-.66-.14V4a1.62,1.62,0,0,0,.33.13,1.37,1.37,0,0,0,.34,0,.81.81,0,0,0,.39-.08.28.28,0,0,0,0-.46,1.58,1.58,0,0,0-.42-.21,2,2,0,0,1-.43-.2.52.52,0,0,1-.18-.18.44.44,0,0,1-.07-.26.47.47,0,0,1,.22-.41,1,1,0,0,1,.58-.15,1.8,1.8,0,0,1,.68.14l-.12.26a1.7,1.7,0,0,0-.58-.13.77.77,0,0,0-.35.07.23.23,0,0,0-.12.2.25.25,0,0,0,.05.15.33.33,0,0,0,.14.11,2.56,2.56,0,0,0,.37.16,1.57,1.57,0,0,1,.52.28A.5.5,0,0,1,13.07,3.85Z" transform="translate(-2.11 -0.13)" style="fill: #5d5d5d"/>
        <path d="M14.5,4.47a1,1,0,0,1-.75-.29,1.12,1.12,0,0,1-.27-.8,1.26,1.26,0,0,1,.25-.83.86.86,0,0,1,.69-.3.84.84,0,0,1,.64.26,1.05,1.05,0,0,1,.23.7v.21H13.82A.81.81,0,0,0,14,4a.65.65,0,0,0,.5.2A1.68,1.68,0,0,0,15.2,4v.29a1.6,1.6,0,0,1-.33.11A1.9,1.9,0,0,1,14.5,4.47Zm-.08-1.95a.56.56,0,0,0-.42.17.8.8,0,0,0-.18.46h1.12a.73.73,0,0,0-.13-.47A.53.53,0,0,0,14.42,2.52Z" transform="translate(-2.11 -0.13)" style="fill: #5d5d5d"/>
        <path d="M17.16,4.43l-.07-.31h0a.89.89,0,0,1-.32.28,1,1,0,0,1-.4.07.72.72,0,0,1-.5-.17.57.57,0,0,1-.18-.46c0-.43.35-.66,1-.68h.36V3A.51.51,0,0,0,17,2.64a.43.43,0,0,0-.34-.12,1.45,1.45,0,0,0-.61.17l-.1-.25a1.35,1.35,0,0,1,.35-.14,1.65,1.65,0,0,1,.38,0,.81.81,0,0,1,.56.17A.71.71,0,0,1,17.4,3V4.43Zm-.73-.23A.64.64,0,0,0,16.9,4a.63.63,0,0,0,.18-.47V3.38h-.33a1.23,1.23,0,0,0-.56.12.37.37,0,0,0-.17.33.34.34,0,0,0,.11.27A.45.45,0,0,0,16.43,4.2Z" transform="translate(-2.11 -0.13)" style="fill: #5d5d5d"/>
        <path d="M19,2.25l.26,0-.05.3-.23,0a.57.57,0,0,0-.44.22.73.73,0,0,0-.19.52V4.43h-.32V2.29h.26l0,.4h0a1,1,0,0,1,.28-.33A.72.72,0,0,1,19,2.25Z" transform="translate(-2.11 -0.13)" style="fill: #5d5d5d"/>
        <path d="M20.56,4.47a.92.92,0,0,1-.72-.29,1.18,1.18,0,0,1-.26-.81,1.23,1.23,0,0,1,.26-.83,1,1,0,0,1,.74-.29l.31,0a1.67,1.67,0,0,1,.24.08l-.1.28a.84.84,0,0,0-.24-.07l-.22,0c-.44,0-.65.27-.65.83a1,1,0,0,0,.16.6.52.52,0,0,0,.47.22,1.4,1.4,0,0,0,.55-.12v.29A1.27,1.27,0,0,1,20.56,4.47Z" transform="translate(-2.11 -0.13)" style="fill: #5d5d5d"/>
        <path d="M23.07,4.43V3A.57.57,0,0,0,23,2.65a.5.5,0,0,0-.37-.12.64.64,0,0,0-.5.18.94.94,0,0,0-.15.6V4.43H21.6v-3h.33v.92a2.16,2.16,0,0,1,0,.28h0a.68.68,0,0,1,.28-.25,1,1,0,0,1,1,.1.78.78,0,0,1,.19.59v1.4Z" transform="translate(-2.11 -0.13)" style="fill: #5d5d5d"/>
        <path d="M25.15,4.43V1.57h.33V4.13h1.26v.3Z" transform="translate(-2.11 -0.13)" style="fill: #5d5d5d"/>
        <path d="M27.48,2.29V3.68a.57.57,0,0,0,.12.39A.5.5,0,0,0,28,4.2.57.57,0,0,0,28.46,4a.88.88,0,0,0,.16-.6V2.29h.32V4.43h-.27l0-.29h0a.6.6,0,0,1-.28.24.84.84,0,0,1-.4.09.78.78,0,0,1-.58-.19.78.78,0,0,1-.2-.59V2.29Z" transform="translate(-2.11 -0.13)" style="fill: #5d5d5d"/>
        <path d="M30.15,3.33l-.75-1h.37l.56.82.57-.82h.36l-.74,1,.78,1.1h-.37l-.6-.87-.6.87h-.37Z" transform="translate(-2.11 -0.13)" style="fill: #5d5d5d"/>
        <path d="M32.63,4.47a1,1,0,0,1-.75-.29,1.12,1.12,0,0,1-.27-.8,1.26,1.26,0,0,1,.25-.83.86.86,0,0,1,.69-.3.81.81,0,0,1,.63.26,1,1,0,0,1,.24.7v.21H31.94a.86.86,0,0,0,.19.57.66.66,0,0,0,.51.2A1.72,1.72,0,0,0,33.33,4v.29a1.82,1.82,0,0,1-.33.11A2,2,0,0,1,32.63,4.47Zm-.09-1.95a.53.53,0,0,0-.41.17.8.8,0,0,0-.18.46h1.12a.73.73,0,0,0-.14-.47A.5.5,0,0,0,32.54,2.52Z" transform="translate(-2.11 -0.13)" style="fill: #5d5d5d"/>
        <path d="M36.7,4.43V3a.62.62,0,0,0-.11-.39.44.44,0,0,0-.34-.12.55.55,0,0,0-.45.17.86.86,0,0,0-.14.53v1.2h-.33V3a.57.57,0,0,0-.11-.39.43.43,0,0,0-.34-.12.52.52,0,0,0-.44.18.94.94,0,0,0-.15.6V4.43H34V2.29h.26l.06.29h0a.67.67,0,0,1,.26-.24.78.78,0,0,1,.37-.09.64.64,0,0,1,.66.36h0a.62.62,0,0,1,.27-.26.82.82,0,0,1,.42-.1.7.7,0,0,1,.54.19A.82.82,0,0,1,37,3v1.4Z" transform="translate(-2.11 -0.13)" style="fill: #5d5d5d"/>
        <path d="M38.69,2.25a.79.79,0,0,1,.65.29,1.25,1.25,0,0,1,.24.82,1.27,1.27,0,0,1-.24.82.8.8,0,0,1-.65.29,1,1,0,0,1-.39-.08A.73.73,0,0,1,38,4.15h0l-.07.28h-.23v-3H38v.74c0,.16,0,.31,0,.44h0A.8.8,0,0,1,38.69,2.25Zm0,.28a.57.57,0,0,0-.48.19,1,1,0,0,0-.15.64,1,1,0,0,0,.16.64.57.57,0,0,0,.48.2A.49.49,0,0,0,39.09,4a1.11,1.11,0,0,0,.15-.63,1.07,1.07,0,0,0-.15-.62A.5.5,0,0,0,38.64,2.53Z" transform="translate(-2.11 -0.13)" style="fill: #5d5d5d"/>
        <path d="M42,3.36a1.18,1.18,0,0,1-.26.81.93.93,0,0,1-.73.3,1,1,0,0,1-.51-.14A.86.86,0,0,1,40.14,4,1.38,1.38,0,0,1,40,3.36a1.22,1.22,0,0,1,.26-.82A1,1,0,0,1,41,2.25a.89.89,0,0,1,.71.3A1.17,1.17,0,0,1,42,3.36Zm-1.63,0a1,1,0,0,0,.16.62A.55.55,0,0,0,41,4.2.56.56,0,0,0,41.49,4a1,1,0,0,0,.16-.62,1,1,0,0,0-.16-.62A.58.58,0,0,0,41,2.53a.57.57,0,0,0-.48.2A1,1,0,0,0,40.36,3.36Z" transform="translate(-2.11 -0.13)" style="fill: #5d5d5d"/>
        <path d="M42.86,2.29V3.68a.57.57,0,0,0,.12.39.52.52,0,0,0,.37.13.61.61,0,0,0,.5-.19.94.94,0,0,0,.15-.6V2.29h.33V4.43h-.27L44,4.14h0a.57.57,0,0,1-.27.24.91.91,0,0,1-.41.09.78.78,0,0,1-.58-.19.78.78,0,0,1-.2-.59V2.29Z" transform="translate(-2.11 -0.13)" style="fill: #5d5d5d"/>
        <path d="M46,2.25l.26,0,0,.3-.23,0a.58.58,0,0,0-.45.22.77.77,0,0,0-.18.52V4.43H45V2.29h.27l0,.4h0a1,1,0,0,1,.29-.33A.7.7,0,0,1,46,2.25Z" transform="translate(-2.11 -0.13)" style="fill: #5d5d5d"/>
        <path d="M48.4,2.29v.2l-.4,0a.77.77,0,0,1,.1.18.66.66,0,0,1,0,.25.63.63,0,0,1-.21.5.85.85,0,0,1-.59.19l-.18,0c-.14.08-.21.17-.21.28a.14.14,0,0,0,.07.13.51.51,0,0,0,.25,0h.38a.82.82,0,0,1,.53.15.48.48,0,0,1,.19.42.58.58,0,0,1-.29.54,1.43,1.43,0,0,1-.83.19,1.06,1.06,0,0,1-.64-.16.53.53,0,0,1-.11-.77.68.68,0,0,1,.35-.2.28.28,0,0,1-.13-.11A.33.33,0,0,1,46.66,4a.36.36,0,0,1,.06-.2.69.69,0,0,1,.2-.17.6.6,0,0,1-.27-.23.7.7,0,0,1-.1-.38.7.7,0,0,1,.21-.54.84.84,0,0,1,.59-.19,1,1,0,0,1,.31,0Zm-1.71,2.5a.28.28,0,0,0,.15.26.79.79,0,0,0,.42.09,1.17,1.17,0,0,0,.6-.12.38.38,0,0,0,.2-.33A.25.25,0,0,0,48,4.45a.77.77,0,0,0-.4-.07h-.39a.54.54,0,0,0-.35.11A.38.38,0,0,0,46.69,4.79ZM46.87,3a.44.44,0,0,0,.12.34.52.52,0,0,0,.36.12A.41.41,0,0,0,47.82,3a.42.42,0,0,0-.48-.48.48.48,0,0,0-.35.12A.49.49,0,0,0,46.87,3Z" transform="translate(-2.11 -0.13)" style="fill: #5d5d5d"/>
      </g>
      <g style="isolation: isolate">
        <path d="M7,6.51a.19.19,0,0,1,0-.16.18.18,0,0,1,.14-.06.18.18,0,0,1,.13.06.24.24,0,0,1,0,.32.18.18,0,0,1-.13.06A.18.18,0,0,1,7,6.67.19.19,0,0,1,7,6.51ZM7.3,9.23H7V7.09H7.3Z" transform="translate(-2.11 -0.13)" style="fill: #5d5d5d"/>
        <path d="M9.37,8.65a.54.54,0,0,1-.23.46,1.07,1.07,0,0,1-.62.16,1.36,1.36,0,0,1-.67-.14v-.3A2,2,0,0,0,8.19,9a1.32,1.32,0,0,0,.34,0,.81.81,0,0,0,.39-.08.29.29,0,0,0,0-.46,1.89,1.89,0,0,0-.43-.21,1.65,1.65,0,0,1-.42-.2.47.47,0,0,1-.19-.18.51.51,0,0,1-.06-.25.49.49,0,0,1,.21-.42,1,1,0,0,1,.59-.15,1.75,1.75,0,0,1,.67.14l-.11.27a1.57,1.57,0,0,0-.59-.14.8.8,0,0,0-.35.07.26.26,0,0,0-.07.35.58.58,0,0,0,.14.12L8.72,8a1.61,1.61,0,0,1,.51.28A.51.51,0,0,1,9.37,8.65Z" transform="translate(-2.11 -0.13)" style="fill: #5d5d5d"/>
        <path d="M13.66,9.23V7.84a.62.62,0,0,0-.11-.39.43.43,0,0,0-.34-.12.55.55,0,0,0-.45.17.87.87,0,0,0-.14.54V9.23H12.3V7.84a.62.62,0,0,0-.11-.39.46.46,0,0,0-.35-.12.52.52,0,0,0-.44.18,1,1,0,0,0-.14.6V9.23h-.33V7.09h.27l.05.29h0a.75.75,0,0,1,.26-.24.79.79,0,0,1,.38-.09.63.63,0,0,1,.65.36h0a.64.64,0,0,1,.28-.26.8.8,0,0,1,.41-.1.7.7,0,0,1,.54.19.78.78,0,0,1,.19.59v1.4Z" transform="translate(-2.11 -0.13)" style="fill: #5d5d5d"/>
        <path d="M16.5,8.16a1.18,1.18,0,0,1-.26.81.93.93,0,0,1-.73.3A1,1,0,0,1,15,9.13a.84.84,0,0,1-.34-.38,1.25,1.25,0,0,1-.13-.59,1.18,1.18,0,0,1,.27-.82,1,1,0,0,1,1.44,0A1.21,1.21,0,0,1,16.5,8.16Zm-1.63,0a1,1,0,0,0,.16.62.56.56,0,0,0,.49.22A.55.55,0,0,0,16,8.78a1,1,0,0,0,.17-.62A1,1,0,0,0,16,7.54a.58.58,0,0,0-.49-.21.55.55,0,0,0-.48.21A1,1,0,0,0,14.87,8.16Z" transform="translate(-2.11 -0.13)" style="fill: #5d5d5d"/>
        <path d="M18.07,7.05a.8.8,0,0,1,.65.29,1.27,1.27,0,0,1,.23.82,1.27,1.27,0,0,1-.23.82.81.81,0,0,1-.65.29,1,1,0,0,1-.39-.08A.8.8,0,0,1,17.39,9h0l-.07.27h-.23v-3h.32v.74c0,.16,0,.31,0,.45h0A.77.77,0,0,1,18.07,7.05ZM18,7.33a.57.57,0,0,0-.48.19,1,1,0,0,0-.15.64,1.06,1.06,0,0,0,.15.64A.59.59,0,0,0,18,9a.48.48,0,0,0,.44-.22,1.11,1.11,0,0,0,.15-.63,1.07,1.07,0,0,0-.15-.62A.51.51,0,0,0,18,7.33Z" transform="translate(-2.11 -0.13)" style="fill: #5d5d5d"/>
        <path d="M19.49,6.51a.2.2,0,0,1,.06-.16.16.16,0,0,1,.13-.06.18.18,0,0,1,.14.06.24.24,0,0,1,0,.32.18.18,0,0,1-.14.06.16.16,0,0,1-.13-.06A.2.2,0,0,1,19.49,6.51Zm.35,2.72h-.32V7.09h.32Z" transform="translate(-2.11 -0.13)" style="fill: #5d5d5d"/>
        <path d="M20.86,9.23h-.33v-3h.33Z" transform="translate(-2.11 -0.13)" style="fill: #5d5d5d"/>
        <path d="M21.52,6.51a.19.19,0,0,1,.05-.16.18.18,0,0,1,.14-.06.16.16,0,0,1,.13.06.24.24,0,0,1,0,.32.16.16,0,0,1-.13.06.18.18,0,0,1-.14-.06A.19.19,0,0,1,21.52,6.51Zm.35,2.72h-.33V7.09h.33Z" transform="translate(-2.11 -0.13)" style="fill: #5d5d5d"/>
        <path d="M23.92,9.23H22.37V9l1.17-1.67h-1.1V7.09H23.9v.25L22.74,9h1.18Z" transform="translate(-2.11 -0.13)" style="fill: #5d5d5d"/>
        <path d="M24.4,6.51a.23.23,0,0,1,.05-.16.19.19,0,0,1,.28,0,.28.28,0,0,1,0,.32.19.19,0,0,1-.28,0A.23.23,0,0,1,24.4,6.51Zm.35,2.72h-.32V7.09h.32Z" transform="translate(-2.11 -0.13)" style="fill: #5d5d5d"/>
        <path d="M26.9,9.23V7.85a.54.54,0,0,0-.12-.39.46.46,0,0,0-.37-.13.61.61,0,0,0-.49.18.88.88,0,0,0-.16.6V9.23h-.32V7.09h.26l.05.29h0a.73.73,0,0,1,.28-.24.87.87,0,0,1,.4-.09.69.69,0,0,1,.78.78v1.4Z" transform="translate(-2.11 -0.13)" style="fill: #5d5d5d"/>
        <path d="M29.65,7.09v.2l-.4,0a.77.77,0,0,1,.1.18.66.66,0,0,1,0,.25.61.61,0,0,1-.22.5.84.84,0,0,1-.59.19l-.17,0c-.14.08-.21.17-.21.28a.14.14,0,0,0,.07.13.51.51,0,0,0,.25,0h.38a.82.82,0,0,1,.53.15.48.48,0,0,1,.19.42.6.6,0,0,1-.29.54,1.46,1.46,0,0,1-.83.19,1.2,1.2,0,0,1-.65-.15.52.52,0,0,1-.22-.45.48.48,0,0,1,.12-.33.64.64,0,0,1,.35-.2A.36.36,0,0,1,28,9a.41.41,0,0,1-.05-.18A.37.37,0,0,1,28,8.56a.71.71,0,0,1,.2-.17.6.6,0,0,1-.27-.23.76.76,0,0,1,.1-.92.86.86,0,0,1,.6-.19,1,1,0,0,1,.31,0Zm-1.71,2.5a.29.29,0,0,0,.14.26.82.82,0,0,0,.42.09,1.19,1.19,0,0,0,.61-.12.38.38,0,0,0,.2-.33.25.25,0,0,0-.11-.24.79.79,0,0,0-.41-.07h-.38a.52.52,0,0,0-.35.11A.38.38,0,0,0,27.94,9.59Zm.17-1.81a.48.48,0,0,0,.13.34.54.54,0,0,0,.35.11c.32,0,.48-.15.48-.46a.42.42,0,0,0-.48-.48.48.48,0,0,0-.35.12A.5.5,0,0,0,28.11,7.78Z" transform="translate(-2.11 -0.13)" style="fill: #5d5d5d"/>
      </g>
    </g>
    <line x1="0.13" x2="0.13" y2="10.53" style="fill: none;stroke: #575b5e;stroke-width: 0.25px"/>
  </g>
</svg>
