<?xml version="1.0" encoding="utf-8"?>
<!-- Generator: Adobe Illustrator 24.0.3, SVG Export Plug-In . SVG Version: 6.00 Build 0)  -->
<svg version="1.1" id="Layer_1" xmlns="http://www.w3.org/2000/svg" xmlns:xlink="http://www.w3.org/1999/xlink" x="0px" y="0px"
	 viewBox="0 0 346.9 88.6" style="enable-background:new 0 0 346.9 88.6;" xml:space="preserve">
<style type="text/css">
	.st0{fill:#ED1C24;}
	.st1{fill:#00AEEF;}
	.st2{fill:#231F20;}
</style>
<g id="Layer_2_1_">
	<g id="Layer_1-2">
		<polygon class="st0" points="0,21.6 13.4,21.6 26.7,34.9 26.7,48.3 13.4,48.3 0,34.9 		"/>
		<polygon class="st0" points="40.1,61.6 53.4,61.6 66.8,75 66.8,88.4 53.4,88.4 40.1,75 		"/>
		<polygon class="st1" points="26.7,61.6 13.4,61.6 0,75 0,88.4 13.4,88.4 26.7,75 		"/>
		<path class="st2" d="M113.9,46.9l-4.3-8.2c-0.3,0-0.7,0-1,0c-0.9,0-1.3,0-2.2-0.1v8.3h-5.9v-25c2.5-0.3,5-0.4,7.4-0.4
			c7.8,0,10.9,3.8,10.9,8.4c0,3-1.7,5.8-4.3,7.3l5.9,9.7H113.9z M108.8,26.7c-0.8,0-1.5,0-2.3,0.2v7c0.6,0.1,1.2,0.1,1.9,0.1
			c2.8,0,4.6-1.3,4.6-3.9C112.9,27.9,111.3,26.7,108.8,26.7z"/>
		<path class="st2" d="M123.7,46.9V21.6h16V27h-10.1v4.5h9.2v5.1h-9.2v4.9h10.1v5.3L123.7,46.9z"/>
		<path class="st2" d="M151.4,47.3c-3-0.1-5.9-1-8.5-2.6l1.6-5.3c2.1,1.5,4.5,2.4,7.1,2.4c2.1,0,2.9-1,2.9-2.2
			c0-1.3-0.7-2.2-4.5-3.8c-4.4-1.8-6-4.4-6-7.4c0-3.7,3-7.3,8.9-7.3c2.5,0,4.9,0.7,7.1,2l-1.5,5.2c-1.6-1.2-3.6-1.9-5.6-2.1
			c-2.1,0-3,1-3,2c0,1.7,1.3,2.2,4.4,3.5c4.7,2,6.1,4.3,6.1,7.5C160.4,43.5,157.5,47.3,151.4,47.3z"/>
		<path class="st2" d="M164.5,46.9V21.6h16V27h-10.1v4.5h9.2v5.1h-9.2v4.9h10.1v5.3L164.5,46.9z"/>
		<path class="st2" d="M201,46.9l-1.9-4.6h-8.7l-1.9,4.6h-6l11.9-25.4h0.8l11.9,25.4H201z M194.8,31.8l-2.5,6.1h5L194.8,31.8z"/>
		<path class="st2" d="M222.9,46.9l-4.3-8.2c-0.3,0-0.7,0-1,0c-0.9,0-1.3,0-2.2-0.1v8.3h-5.9v-25c2.5-0.3,5-0.4,7.4-0.4
			c7.8,0,10.9,3.8,10.9,8.4c0,3-1.7,5.8-4.3,7.3l5.9,9.7H222.9z M217.7,26.7c-0.8,0-1.5,0-2.3,0.2v7c0.6,0.1,1.2,0.1,1.9,0.1
			c2.8,0,4.6-1.3,4.6-3.9C221.8,27.9,220.2,26.7,217.7,26.7z"/>
		<path class="st2" d="M245.2,47.3c-8.2,0-13.8-5.5-13.8-13c0-7.5,5.6-13,13.8-13c2.8,0,5.5,0.8,7.9,2.2l-1.8,5
			c-1.8-1.1-3.9-1.6-6-1.7c-4.7,0-7.6,2.9-7.6,7.6s2.9,7.6,7.6,7.6c2.2,0,4.4-0.7,6.3-1.9l1.8,5C250.9,46.5,248.1,47.3,245.2,47.3z"
			/>
		<path class="st2" d="M272.8,46.9V36.8h-9.7v10.1h-5.9V21.6h5.9v9.9h9.7v-9.9h5.9v25.2H272.8z"/>
		<path class="st2" d="M100.6,88.2V63h5.9v19.9h10.1v5.3H100.6z"/>
		<path class="st2" d="M129.2,88.6c-6.8,0-10.6-3.6-10.6-10.7V63h5.9v14.6c0,3.6,1.5,5.7,4.9,5.7c3.3,0,4.8-2.2,4.8-5.7V63h5.9v15
			C140,85,136,88.6,129.2,88.6z"/>
		<path class="st2" d="M160.2,88.2l-5.1-8.3l-5.1,8.3h-6.9l8.3-12.3L143.1,63h7l5.1,8.3l5.1-8.3h6.9l-8.3,12.3l8.3,12.9H160.2z"/>
		<path class="st2" d="M170.6,88.2V63h16v5.4h-10.1v4.5h9.2v5.1h-9.2v4.9h10.1v5.3L170.6,88.2z"/>
		<path class="st2" d="M212.2,88.2l-0.3-12.4l-7,8.8h-0.6l-7.1-8.8L197,88.2h-5.6l1.2-25.4l0.8-0.1l11.4,14.4l11.2-14.4l0.8,0.1
			l1.2,25.4H212.2z"/>
		<path class="st2" d="M230.6,88.4c-2.5,0-5-0.2-7.5-0.5V63.3c2.3-0.3,4.7-0.5,7.1-0.6c7.3,0,11.1,3.3,11.1,6.8
			c0,2.7-1.5,4.4-4.3,5.6c3.4,1,5.1,3,5.1,5.9C241.9,85,238.2,88.4,230.6,88.4z M231.4,67.8c-0.9,0-1.8,0.1-2.7,0.2v5.3
			c0.7,0.1,1.4,0.1,2.2,0.1c2.8,0,4.2-1,4.2-2.9C235.2,69.1,233.9,67.8,231.4,67.8L231.4,67.8z M231,77.4c-0.7,0-1.5,0-2.2,0.1v5.9
			c0.8,0.1,1.6,0.1,2.4,0.1c3,0,4.4-1.1,4.4-3C235.6,78.5,234.1,77.4,231,77.4L231,77.4z"/>
		<path class="st2" d="M258.2,88.6c-7.8,0-12.8-5.6-12.8-13c0-7.4,5.2-13,13-13c7.8,0,12.8,5.6,12.8,13
			C271.3,83,266,88.6,258.2,88.6z M258.3,67.8c-4,0-6.7,3.3-6.7,7.8c0,4.5,2.7,7.8,6.7,7.8c4,0,6.7-3.3,6.7-7.8
			C265,71,262.3,67.8,258.3,67.8L258.3,67.8z"/>
		<path class="st2" d="M286.2,88.6c-6.8,0-10.6-3.6-10.6-10.7V63h5.9v14.6c0,3.6,1.5,5.7,4.9,5.7c3.3,0,4.8-2.2,4.8-5.7V63h5.9v15
			C297,85,293,88.6,286.2,88.6z"/>
		<path class="st2" d="M315.6,88.2l-4.3-8.2c-0.3,0-0.7,0-1,0c-0.9,0-1.3,0-2.2-0.1v8.3h-5.9v-25c2.5-0.3,5-0.4,7.4-0.4
			c7.8,0,10.9,3.8,10.9,8.4c0,3-1.7,5.8-4.3,7.3l5.9,9.7H315.6z M310.4,68c-0.8,0-1.5,0-2.3,0.2v7c0.6,0.1,1.2,0.1,1.9,0.1
			c2.8,0,4.6-1.3,4.6-3.9C314.5,69.3,312.9,68,310.4,68z"/>
		<path class="st2" d="M346.9,74v12c-2.9,1.7-6.2,2.6-9.6,2.5c-7.4,0-13.3-5.3-13.3-13c0-7.7,5.9-13,13.6-13c3,0,5.9,0.7,8.5,2.2
			l-2.4,4.7c-1.7-0.9-3.7-1.4-5.6-1.4c-5,0-7.7,3.1-7.7,7.6c0,4.8,3.2,7.8,7.4,7.8c1.3,0.1,2.6-0.1,3.7-0.7V79h-5.1v-5L346.9,74z"/>
		<polygon class="st1" points="77.5,10.8 63.7,10.8 60.5,14 74.3,14 74.3,27 77.5,23.9 		"/>
		<polygon class="st1" points="66.2,21.8 53,21.8 39.8,35.1 39.8,48.3 53,48.3 66.2,35.1 		"/>
		<polygon class="st1" points="88.3,0 74.5,0 71.4,3.2 85.2,3.2 85.2,16.2 88.3,13 		"/>
	</g>
</g>
</svg>
